#N canvas 881 108 1017 765 10;
#X declare -lib mrpeach;
#X msg 777 538 disconnect;
#X obj 9 574 import mrpeach;
#X obj 641 562 udpsend;
#X obj 640 496 packOSC;
#X obj 233 161 bng 15 250 50 0 empty empty empty 17 7 0 10 -262144
-1 -1;
#X obj 232 81 tgl 15 0 empty empty empty 17 7 0 10 -262144 -1 -1 0
1;
#X obj 232 122 metro 250;
#X obj 232 201 counter 3;
#X floatatom 237 264 5 0 0 0 - - -;
#X obj 236 319 select 0 1 2 3;
#X obj 210 369 bng 15 250 50 0 empty empty empty 17 7 0 10 -262144
-1 -1;
#X obj 234 377 bng 15 250 50 0 empty empty empty 17 7 0 10 -262144
-1 -1;
#X obj 276 377 bng 15 250 50 0 empty empty empty 17 7 0 10 -262144
-1 -1;
#X obj 300 385 bng 15 250 50 0 empty empty empty 17 7 0 10 -262144
-1 -1;
#X floatatom 222 438 5 0 0 0 - - -;
#X floatatom 272 441 5 0 0 0 - - -;
#X floatatom 322 444 5 0 0 0 - - -;
#X floatatom 372 447 5 0 0 0 - - -;
#X floatatom 265 509 5 0 0 0 - - -;
#X obj 264 573 osc~;
#X obj 273 639 dac~;
#X floatatom 336 632 5 0 0 0 - - -;
#X msg 360 524 send /escala \$1;
#X msg 417 622 send /color \$1;
#X floatatom 608 403 5 0 0 0 - - -;
#X msg 688 400 send /ancho \$1;
#X msg 713 485 connect localhost 12000;
#X connect 0 0 2 0;
#X connect 3 0 2 0;
#X connect 4 0 7 0;
#X connect 5 0 6 0;
#X connect 6 0 4 0;
#X connect 7 0 8 0;
#X connect 8 0 9 0;
#X connect 9 0 10 0;
#X connect 9 1 11 0;
#X connect 9 2 12 0;
#X connect 9 3 13 0;
#X connect 10 0 14 0;
#X connect 11 0 15 0;
#X connect 12 0 16 0;
#X connect 13 0 17 0;
#X connect 14 0 18 0;
#X connect 15 0 18 0;
#X connect 16 0 18 0;
#X connect 17 0 18 0;
#X connect 18 0 19 0;
#X connect 18 0 22 0;
#X connect 19 0 20 0;
#X connect 19 0 20 1;
#X connect 21 0 19 1;
#X connect 21 0 23 0;
#X connect 22 0 3 0;
#X connect 23 0 3 0;
#X connect 24 0 25 0;
#X connect 25 0 3 0;
#X connect 26 0 2 0;
